<?xml version="1.0" encoding="UTF-8"?>
<svg version="1.1" xmlns="http://www.w3.org/2000/svg" width="512" height="512">
<path d="M0 0 C4.12279192 0.00914431 8.24551904 -0.00496515 12.36829758 -0.01591969 C20.42114874 -0.03361055 28.47384991 -0.02990731 36.5267067 -0.01826912 C43.07743169 -0.00919766 49.62811496 -0.00802676 56.17884445 -0.01236439 C57.11483144 -0.01297732 58.05081843 -0.01359025 59.01516867 -0.01422176 C60.9172179 -0.01550079 62.81926713 -0.01679765 64.72131634 -0.01811212 C82.51389757 -0.02949029 100.30639608 -0.01644775 118.09896374 0.00508934 C133.3317681 0.0229578 148.56445049 0.01985291 163.79725266 0.0014143 C181.53063333 -0.02004141 199.26394168 -0.02839191 216.99733353 -0.01613665 C218.89198429 -0.01486259 220.78663507 -0.0136051 222.68128586 -0.01236439 C223.61324075 -0.01174729 224.54519565 -0.01113018 225.5053916 -0.01049438 C232.04044057 -0.00705555 238.57544327 -0.01283799 245.11048508 -0.0222826 C253.08571738 -0.03355638 261.06079241 -0.03035036 269.03600693 -0.00915962 C273.09708423 0.00127898 277.15790031 0.00559719 281.21897507 -0.00775623 C313.99068304 -0.10631518 342.46802042 5.11435943 366.68397141 28.71430492 C391.45121616 54.0452423 396.06487917 83.0568653 395.95296383 117.09283352 C395.94381952 121.21562544 395.95792898 125.33835256 395.96888351 129.4611311 C395.98657438 137.51398226 395.98287114 145.56668343 395.97123295 153.61954021 C395.96216149 160.17026521 395.96099059 166.72094848 395.96532822 173.27167797 C395.96594115 174.20766496 395.96655408 175.14365195 395.96718559 176.10800219 C395.96846462 178.01005142 395.96976148 179.91210065 395.97107595 181.81414986 C395.98245411 199.60673109 395.96941158 217.39922959 395.94787449 235.19179726 C395.93000603 250.42460162 395.93311092 265.65728401 395.95154953 280.89008617 C395.97300524 298.62346685 395.98135574 316.3567752 395.96910048 334.09016705 C395.96782642 335.98481781 395.96656893 337.87946859 395.96532822 339.77411938 C395.96471111 340.70607427 395.96409401 341.63802917 395.96345821 342.59822512 C395.96001938 349.13327409 395.96580182 355.66827679 395.97524643 362.2033186 C395.98652021 370.17855089 395.98331419 378.15362593 395.96212345 386.12884045 C395.95168485 390.18991775 395.94736664 394.25073383 395.96072006 398.31180859 C396.05927901 431.08351655 390.83860439 459.56085394 367.23865891 483.77680492 C341.90772153 508.54404968 312.89609853 513.15771269 278.86013031 513.04579735 C274.73733839 513.03665304 270.61461127 513.0507625 266.49183273 513.06171703 C258.43898157 513.0794079 250.3862804 513.07570466 242.33342361 513.06406647 C235.78269862 513.05499501 229.23201535 513.05382411 222.68128586 513.05816174 C221.74529887 513.05877467 220.80931188 513.0593876 219.84496164 513.06001911 C217.94291241 513.06129814 216.04086318 513.062595 214.13881397 513.06390947 C196.34623274 513.07528763 178.55373423 513.0622451 160.76116657 513.04070801 C145.52836221 513.02283955 130.29567982 513.02594444 115.06287766 513.04438305 C97.32949698 513.06583876 79.59618863 513.07418926 61.86279678 513.06193399 C59.96814602 513.06065994 58.07349524 513.05940245 56.17884445 513.05816174 C55.24688956 513.05754463 54.31493466 513.05692753 53.35473871 513.05629173 C46.81968974 513.0528529 40.28468704 513.05863534 33.74964523 513.06807995 C25.77441293 513.07935373 17.7993379 513.07614771 9.82412338 513.05495697 C5.76304608 513.04451837 1.70223 513.04020016 -2.35884476 513.05355358 C-35.13055273 513.15211253 -63.60789011 507.93143791 -87.82384109 484.33149242 C-112.59108585 459.00055505 -117.20474886 429.98893205 -117.09283352 395.95296383 C-117.08368921 391.83017191 -117.09779867 387.70744478 -117.1087532 383.58466625 C-117.12644407 375.53181509 -117.12274083 367.47911392 -117.11110264 359.42625713 C-117.10203118 352.87553214 -117.10086028 346.32484887 -117.10519791 339.77411938 C-117.10581084 338.83813239 -117.10642377 337.9021454 -117.10705528 336.93779516 C-117.10833431 335.03574593 -117.10963117 333.1336967 -117.11094564 331.23164749 C-117.1223238 313.43906626 -117.10928127 295.64656775 -117.08774418 277.85400009 C-117.06987572 262.62119573 -117.07298061 247.38851334 -117.09141922 232.15571117 C-117.11287493 214.4223305 -117.12122543 196.68902215 -117.10897017 178.9556303 C-117.10769611 177.06097954 -117.10643862 175.16632876 -117.10519791 173.27167797 C-117.10427225 171.87374563 -117.10427225 171.87374563 -117.1033279 170.44757223 C-117.09988907 163.91252326 -117.10567151 157.37752056 -117.11511612 150.84247875 C-117.1263899 142.86724645 -117.12318388 134.89217142 -117.10199314 126.9169569 C-117.09155454 122.8558796 -117.08723633 118.79506352 -117.10058975 114.73398876 C-117.1991487 81.96228079 -111.97847408 53.48494341 -88.37852859 29.26899242 C-63.04759122 4.50174767 -34.03596822 -0.11191534 0 0 Z " fill="#0079FF" transform="translate(116.5699348449707,-0.5228986740112305)"/>
<path d="M0 0 C10.67225342 4.46294234 14.82433933 18.89856377 19.05761719 28.79663086 C21.02372399 33.39200193 23.01959417 37.97445659 25.01171875 42.55859375 C25.42304047 43.5070517 25.83436218 44.45550964 26.25814819 45.43270874 C30.56245854 55.33849153 35.02477722 65.17056719 39.5 75 C47.92577387 93.52946224 56.14932995 112.14397343 64.28746033 130.80140686 C64.58697098 131.48770676 64.88648163 132.17400665 65.19506836 132.88110352 C65.48586273 133.5487825 65.7766571 134.21646149 66.07626343 134.90437317 C66.7405127 136.41131642 67.41568802 137.91346093 68.09780884 139.41239929 C68.46006561 140.21055557 68.82232239 141.00871185 69.19555664 141.83105469 C69.69364586 142.91722076 69.69364586 142.91722076 70.20179749 144.02532959 C71.92085921 148.27811037 71.68621361 152.53614581 71 157 C68.81473658 161.45146251 66.0605479 164.18885145 62 167 C56.8969876 168.70100413 51.0802612 168.95041517 45.8984375 167.3515625 C34.05488789 161.2471779 30.22138863 143.13133272 26 133 C-6.175 132.505 -6.175 132.505 -39 132 C-39.99 134.97 -40.98 137.94 -42 141 C-49.65989036 162.45084929 -49.65989036 162.45084929 -58 167 C-63.28018326 168.76006109 -69.13062174 169.08596371 -74.39453125 167.09375 C-78.83270261 164.52471574 -81.53262389 162.04410538 -83 157 C-83.94595922 147.94544801 -82.13080965 141.50856444 -78.1875 133.4375 C-77.36911474 131.68086246 -76.55087558 129.92415395 -75.7361145 128.16583252 C-75.13986763 126.88192955 -74.54071978 125.5993705 -73.93893433 124.3180542 C-70.21774094 116.38848935 -66.71653001 108.36242673 -63.19470215 100.34289551 C-61.16909728 95.73473239 -59.13316919 91.13113682 -57.09765625 86.52734375 C-56.68337372 85.59004425 -56.26909119 84.65274475 -55.84225464 83.68704224 C-51.47566589 73.80973124 -47.09925916 63.93678597 -42.71606445 54.0668335 C-41.8824 52.18941702 -41.04905144 50.31186023 -40.21606445 48.43414307 C-38.2741117 44.05718383 -36.32650401 39.68296168 -34.36669922 35.31396484 C-32.68864873 31.56784188 -31.05308933 27.80568502 -29.43408203 24.03369141 C-28.57216147 22.06012466 -27.71002523 20.08665209 -26.84765625 18.11328125 C-26.46580673 17.20442673 -26.08395721 16.2955722 -25.6905365 15.35917664 C-20.11001635 2.7172611 -13.68960613 -1.13662175 0 0 Z " fill="#FDFEFF" transform="translate(194,172)"/>
<path d="M0 0 C6.05845516 5.1410579 11.88785342 11.14993051 13.73046875 19.125 C14.0582382 24.43076805 12.23572829 27.81855273 9.23046875 31.9609375 C3.85390255 35.91483842 -1.32866984 35.72854701 -7.76953125 34.9609375 C-10.83203125 33.4609375 -10.83203125 33.4609375 -13.76953125 30.9609375 C-15.65621444 29.55276092 -17.55294968 28.15799812 -19.45703125 26.7734375 C-20.38902344 26.07863281 -21.32101562 25.38382813 -22.28125 24.66796875 C-26.70486097 21.63324662 -30.89674932 21.71452011 -36.08203125 21.6484375 C-36.82904297 21.61943359 -37.57605469 21.59042969 -38.34570312 21.56054688 C-43.64368974 21.5000782 -46.55445415 22.48523674 -50.76953125 25.9609375 C-54.44314034 30.11791621 -55.42452177 33.38179251 -55.15234375 38.7890625 C-54.24874056 43.91562756 -50.75773089 47.41808073 -46.84863281 50.61816406 C-42.14869675 53.65358543 -36.68189079 55.29040936 -31.45703125 57.2109375 C-11.45079339 64.78230548 7.9444233 72.86512539 19.10546875 92.2109375 C22.97898577 101.67953466 22.86487998 115.53249814 19.60546875 125.1484375 C17.47446504 129.97672562 14.718959 134.01813224 11.23046875 137.9609375 C10.65554688 138.62867188 10.080625 139.29640625 9.48828125 139.984375 C-0.02270158 150.28465101 -15.40073772 157.89376037 -29.58203125 158.90234375 C-30.30390625 158.92167969 -31.02578125 158.94101562 -31.76953125 158.9609375 C-32.84203125 159.01121094 -33.91453125 159.06148437 -35.01953125 159.11328125 C-53.3879667 159.59162592 -70.22967769 155.7173527 -84.39453125 143.4609375 C-91.29430851 136.71216547 -96.61290839 130.41225291 -97.14453125 120.4609375 C-97.02279466 115.93385823 -95.81431494 113.40635062 -92.76953125 109.9609375 C-88.89533588 106.6150415 -85.97405369 105.34954695 -80.78515625 105.63671875 C-73.91287677 106.74214355 -68.71758479 110.40063856 -64.58203125 115.8359375 C-60.27215616 121.21301975 -53.58376747 125.06432747 -46.76953125 125.9609375 C-33.63149893 126.89793499 -33.63149893 126.89793499 -21.76953125 121.9609375 C-17.09811723 117.73064974 -15.95652039 114.24220504 -15.45703125 108.1484375 C-15.56523844 102.84628539 -17.64211066 99.19730955 -21.21875 95.4375 C-27.28352583 90.28584772 -34.96988525 87.82263612 -42.27929688 84.94677734 C-67.18200951 75.08823287 -67.18200951 75.08823287 -75.76953125 67.9609375 C-76.40632813 67.49429688 -77.043125 67.02765625 -77.69921875 66.546875 C-84.96491845 60.96507137 -90.15058633 51.9730642 -91.76953125 42.9609375 C-92.92055808 28.44521021 -90.2247333 17.18403981 -81.0234375 5.80078125 C-60.96167896 -15.84589792 -23.17678016 -17.06386353 0 0 Z " fill="#FCFDFF" transform="translate(379.76953125,182.0390625)"/>
<path d="M0 0 C2.43075518 2.19091829 3.71186729 4.16352311 4.99291992 7.16430664 C5.35306686 7.99849625 5.71321381 8.83268585 6.08427429 9.69215393 C6.46251846 10.5890947 6.84076263 11.48603546 7.23046875 12.41015625 C7.62575272 13.33340195 8.02103668 14.25664764 8.42829895 15.20787048 C9.26121618 17.15738033 10.09061716 19.10839569 10.91674805 21.06079102 C12.1855196 24.05782198 13.4658474 27.04970839 14.74804688 30.04101562 C15.55537243 31.93460396 16.36203594 33.82847473 17.16796875 35.72265625 C17.55228561 36.62162125 17.93660248 37.52058624 18.33256531 38.4467926 C18.68325577 39.27783005 19.03394623 40.10886749 19.39526367 40.96508789 C19.70598312 41.69772354 20.01670258 42.43035919 20.33683777 43.18519592 C21 45 21 45 21 47 C7.8 47 -5.4 47 -19 47 C-18.29203254 43.4601627 -17.70936166 40.98785393 -16.34179688 37.79223633 C-16.00474731 36.99823929 -15.66769775 36.20424225 -15.32043457 35.38618469 C-14.95687866 34.54331406 -14.59332275 33.70044342 -14.21875 32.83203125 C-13.84520386 31.95600754 -13.47165771 31.07998383 -13.08679199 30.17741394 C-11.89565308 27.38717882 -10.69784641 24.59986118 -9.5 21.8125 C-8.69358656 19.92531127 -7.88759223 18.03794339 -7.08203125 16.15039062 C-5.60989389 12.70572372 -4.13687705 9.26144679 -2.65820312 5.81958008 C-2.36143677 5.12850662 -2.06467041 4.43743317 -1.75891113 3.72541809 C-1.20601412 2.46838223 -0.61413911 1.22827823 0 0 Z " fill="#0384FF" transform="translate(187,229)"/>
</svg>
